<?xml version="1.0" encoding="utf-8"?>
<!-- Generator: Adobe Illustrator 24.1.2, SVG Export Plug-In . SVG Version: 6.00 Build 0)  -->
<svg version="1.1" id="Layer_1" xmlns="http://www.w3.org/2000/svg" xmlns:xlink="http://www.w3.org/1999/xlink" x="0px" y="0px"
	 viewBox="0 0 295.6 101.2" style="enable-background:new 0 0 295.6 101.2;" xml:space="preserve">
<style type="text/css">
	.st0{fill-rule:evenodd;clip-rule:evenodd;fill:#6A9099;}
	.st1{fill-rule:evenodd;clip-rule:evenodd;fill:#E8E8E8;}
	.st2{fill:#6A9099;}
</style>
<path id="_.ai_copy" class="st0" d="M255.5,89.5c1.3,1.3,3.4,1.3,4.8,0c0.6-0.6,1-1.5,1-2.3c0-0.9-0.4-1.8-1-2.4
	c-1.3-1.3-3.4-1.3-4.7,0l0,0c-0.6,0.6-1,1.5-1,2.4C254.5,88.1,254.8,88.9,255.5,89.5z M277.2,84c-0.8,1.1-2.1,1.8-3.6,1.8
	c-2.4,0.2-4.4-1.6-4.6-4c0-0.2,0-0.4,0-0.7c0-2.1,0.5-3.7,1.4-4.9c0.9-1.1,2.3-1.8,3.8-1.8c1.2-0.1,2.4,0.4,3.2,1.3
	c0.8,0.8,1.2,2,1.2,3.5C278.6,81.3,278.2,82.8,277.2,84z M285,70.8h-5.5l-0.3,2.7c-0.6-1-1.5-1.9-2.6-2.5s-2.4-0.9-3.6-0.8
	c-2.6,0-5.1,1.1-6.7,3.2c-1.7,2.1-2.6,4.9-2.6,8.2c0,2.9,0.7,5.1,2.1,6.7c1.3,1.6,3.2,2.4,5.7,2.4c1.2,0,2.3-0.2,3.4-0.7
	c1-0.5,1.8-1.2,2.5-2.2L277,90h5.5L285,70.8z M290.1,65.7c0.6,0.6,1.4,1,2.3,1s1.7-0.3,2.3-1c1.3-1.3,1.3-3.3,0-4.6
	c-0.6-0.6-1.4-1-2.3-1c-1.8,0-3.2,1.5-3.2,3.3C289.2,64.3,289.5,65.1,290.1,65.7L290.1,65.7z M291.7,90l2.5-19.2h-5.5L286.2,90
	H291.7L291.7,90z"/>
<path id="_Assist_copy" class="st0" d="M87.7,90l3.9-7.8H106l1.7,7.8h11.2l-8.8-41.2H96.3L75.7,90H87.7z M100.1,63.6
	c0.2-0.4,0.4-1,0.8-1.9c0.3-0.9,0.7-1.8,1.1-3c0,0.7,0.1,1.3,0.2,2.1s0.2,1.6,0.4,2.6l1.9,9.6h-8.7L100.1,63.6z M119,84.1
	c1.8,2.2,4,4,6.5,5.2c2.4,1.2,5.1,1.8,7.7,1.7c5.2,0,9.4-1.3,12.4-4c3-2.6,4.6-6.1,4.6-10.5c0-2.5-0.6-4.6-1.7-6.2
	c-1.1-1.7-3.1-3.3-6-4.9c-0.6-0.3-1.3-0.7-2.3-1.2c-2.8-1.4-4.2-2.7-4.2-3.9c0-0.9,0.4-1.8,1.1-2.4c0.8-0.7,1.8-1,2.8-1
	c1.2,0,2.3,0.4,3.4,0.9c1.5,0.8,2.8,1.7,4,2.9l4.7-8.1c-1.8-1.5-3.8-2.7-6-3.6c-2.1-0.8-4.4-1.2-6.6-1.2c-4.3,0-7.9,1.3-10.6,3.9
	c-2.7,2.6-4.1,5.9-4.1,10c-0.1,2.1,0.6,4,1.8,5.7c1.2,1.5,3.4,3.2,6.7,4.9c0.2,0.1,0.4,0.2,0.8,0.4c3.3,1.7,5,3.4,5,4.9
	c0,1-0.4,2-1.2,2.7c-1,0.7-2.1,1.1-3.3,1c-1.7,0-3.4-0.4-4.8-1.3c-1.9-1.1-3.5-2.5-5-4L119,84.1z M151,84.1c1.8,2.2,4,4,6.5,5.2
	c2.4,1.2,5.1,1.8,7.7,1.7c5.2,0,9.4-1.3,12.4-4c3-2.6,4.6-6.1,4.6-10.5c0-2.5-0.6-4.6-1.7-6.2c-1.1-1.7-3.1-3.3-6-4.9
	c-0.6-0.3-1.3-0.7-2.3-1.2c-2.8-1.4-4.2-2.7-4.2-3.9c0-0.9,0.4-1.8,1.1-2.4c0.8-0.7,1.8-1,2.8-1c1.2,0,2.3,0.4,3.4,0.9
	c1.5,0.8,2.8,1.7,4,2.9l4.7-8.1c-1.8-1.5-3.8-2.7-6-3.6c-2.1-0.8-4.4-1.2-6.6-1.2c-4.3,0-7.9,1.3-10.6,3.9c-2.7,2.6-4.1,5.9-4.1,10
	c-0.1,2.1,0.6,4,1.8,5.7c1.2,1.5,3.4,3.2,6.7,4.9c0.2,0.1,0.4,0.2,0.8,0.4c3.3,1.7,5,3.4,5,4.9c0,1-0.4,2-1.2,2.7
	c-1,0.7-2.1,1.1-3.3,1c-1.7,0-3.4-0.4-4.8-1.3c-1.9-1.1-3.5-2.5-5-4L151,84.1z M196.3,90l6.5-41.2h-11.2L185.1,90H196.3z M201,84.1
	c1.8,2.2,4,4,6.5,5.2c2.4,1.2,5.1,1.8,7.7,1.7c5.2,0,9.4-1.3,12.4-4s4.6-6.1,4.6-10.5c0-2.5-0.6-4.6-1.7-6.2c-1.1-1.7-3.1-3.3-6-4.9
	c-0.6-0.3-1.3-0.7-2.3-1.2c-2.8-1.4-4.2-2.7-4.2-3.9c0-0.9,0.4-1.8,1.1-2.4c0.8-0.7,1.8-1,2.8-1c1.2,0,2.3,0.4,3.4,0.9
	c1.5,0.8,2.8,1.7,4,2.9l4.7-8.1c-1.8-1.5-3.8-2.7-6-3.6c-2.1-0.8-4.4-1.2-6.6-1.2c-4.3,0-7.9,1.3-10.6,3.9c-2.7,2.6-4.1,5.9-4.1,10
	c-0.1,2.1,0.6,4,1.8,5.7c1.2,1.5,3.4,3.2,6.7,4.9c0.2,0.1,0.4,0.2,0.8,0.4c3.3,1.7,5,3.4,5,4.9c0,1-0.4,2-1.2,2.7
	c-1,0.7-2.1,1.1-3.3,1c-1.7,0-3.4-0.4-4.8-1.3c-1.9-1.1-3.5-2.5-5-4L201,84.1z M250.5,90l5-31.6h8.8l1.6-9.5h-29.1l-1.6,9.5h9.2
	l-5,31.6H250.5L250.5,90z"/>
<path id="Patent_copy" class="st1" d="M94.8,13.5h1.9c2.2,0,3.8,0.3,4.8,1s1.5,1.7,1.5,3.1c0,1.7-0.6,2.9-1.8,3.6
	c-1.2,0.7-3.4,1.1-6.8,1.1h-1L94.8,13.5z M90,43.9l2.2-13.5h4.3c3.1,0,5.3-0.1,6.8-0.4c1.3-0.2,2.6-0.7,3.8-1.4
	c1.8-1.1,3.3-2.8,4.3-4.8c1.1-2.1,1.6-4.4,1.6-6.7c0.1-2.2-0.4-4.3-1.5-6.3c-1-1.8-2.6-3.2-4.4-4.1c-1.2-0.6-2.5-1-3.8-1.2
	c-2.2-0.3-4.4-0.4-6.6-0.4H85.9l-6.1,38.6H90V43.9z M115.1,43.9l3.7-7.3h13.5l1.5,7.3h10.5l-8.2-38.6h-12.9l-19.3,38.6H115.1
	L115.1,43.9z M126.8,19.2c0.2-0.4,0.4-1,0.7-1.8c0.3-0.8,0.6-1.7,1-2.8c0,0.6,0.1,1.3,0.2,2c0.1,0.7,0.2,1.5,0.4,2.4l1.8,9h-8.2
	L126.8,19.2z M157.9,43.9l4.7-29.7h8.3l1.5-9H145l-1.5,9h8.7l-4.7,29.7H157.9z M182.2,28.9h11.1l1.3-8.4h-11.1l1-6.3h11.9l1.4-8.9
	h-22.3l-6.1,38.6h22.3l1.3-8.6h-12L182.2,28.9z M207.1,43.9l2.9-19.6c0.2-1.3,0.3-2.3,0.3-3.1c0.1-0.8,0.1-1.5,0.1-2.2v-1.1
	c0.2,1,0.5,1.9,0.8,2.8c0.3,1,0.8,2.1,1.4,3.5l8.7,19.6h11.4l6.1-38.6h-10.3l-3,19c-0.2,1.2-0.3,2.3-0.4,3.1
	c-0.1,0.9-0.1,1.6-0.1,2.3v1c-0.5-1.9-1.1-3.7-1.9-5.5c-0.2-0.4-0.3-0.7-0.4-0.8l-8.2-19.1h-11.8l-6.1,38.6L207.1,43.9L207.1,43.9z
	 M255.6,43.9l4.7-29.7h8.2l1.5-9h-27.3l-1.5,9h8.7l-4.7,29.7H255.6z"/>
<g>
	<path class="st2" d="M72.7,5.2c0.6,0.2,1.1,0.4,1.7,0.7c2.3,1.3,3.1,3.4,2.7,6.1c-1.7,10.7-3.4,21.5-5.1,32.2
		c-0.1,0.8,0,1.1,0.7,1.3C84.8,50.2,86,67,75,77c-0.6,0.6-0.9,1.1-1,1.8c-1,6.3-2,12.6-3,18.9c-0.5,3-2.9,4.4-5.4,2.9
		c-2.4-1.5-4.8-3-7.2-4.5c-0.5-0.3-0.9-0.3-1.4,0c-2.8,1.5-5.7,2.8-8.4,4.4c-2.9,1.7-5.3,0-4.7-3c0.7-3.2,1.1-6.4,1.6-9.8
		c-0.4,0-0.7,0-1,0c-12.8,0-25.5,0-38.3,0c-4.6,0-6.8-2.7-6.1-7.3c3.6-22.5,7.1-45.1,10.7-67.7c0.6-4,2.1-5.8,6.1-7.3
		c0.1,0,0.1-0.1,0.2-0.2C35.6,5.2,54.1,5.2,72.7,5.2z M65.9,44.2c0-0.4,0.1-0.6,0.2-0.9C67.7,33,69.3,22.7,71,12.4
		c0.2-1.2,0.2-1.2-1.1-1.2c-17.2,0-34.3,0-51.5,0c-1.3,0-1.3,0-1.5,1.3c-3.6,22.6-7.2,45.3-10.8,68c-0.2,1.3-0.2,1.3,1.1,1.3
		c12.8,0,25.5,0,38.3,0c0.3,0,0.6,0,0.8,0c0.1-0.1,0.1-0.1,0.1-0.2c0.2-1,0.3-1.9,0.5-2.8c0.2-0.7,0-1.1-0.4-1.7
		c-4-5.3-4.6-11.5-1.7-18.5C47.9,51.1,56.1,44.4,65.9,44.2z M65,50.2c-7.4,0-14.5,6.1-15.7,13.5s3.9,13.5,11.3,13.5
		s14.5-6,15.7-13.5C77.5,56.3,72.4,50.2,65,50.2z M67.5,81.8c-5.4,2-10.3,2-15,0c-0.6,3.8-1.2,7.5-1.8,11.3c2.1-1.1,4-2.1,6-3.1
		c1.5-0.8,2.7-0.8,4,0c1.2,0.8,2.5,1.6,3.8,2.4c0.4,0.2,0.8,0.5,1.3,0.8C66.3,89.2,66.8,85.6,67.5,81.8z"/>
	<path class="st2" d="M40.5,20.2c4.1,0,8.2,0,12.4,0c2,0,3.2,1.2,2.9,3s-1.8,3-3.9,3c-8.4,0-16.7,0-25,0c-1.7,0-2.7-1.1-2.7-2.7
		c0.1-1.5,1.2-2.9,2.8-3.2c0.4-0.1,0.8-0.1,1.1-0.1C32.2,20.2,36.3,20.2,40.5,20.2z"/>
	<path class="st2" d="M38.5,32.2c4.2,0,8.3,0,12.5,0c2,0,3.1,1.3,2.8,3s-1.8,3-3.8,3c-8.3,0-16.6,0-24.9,0c-2,0-3.1-1.3-2.8-3
		c0.3-1.7,1.8-3,3.8-3C30.2,32.2,34.4,32.2,38.5,32.2z"/>
	<path class="st2" d="M30.4,50.2c-2.4,0-4.8,0-7.2,0c-1.9,0-3-1.3-2.8-3s1.8-3,3.7-3c4.8,0,9.7,0,14.5,0c1.9,0,3,1.3,2.8,3
		c-0.3,1.7-1.8,3-3.7,3C35.3,50.2,32.8,50.2,30.4,50.2z"/>
	<path class="st2" d="M60.4,64.3c1.8-2.2,3.6-4.3,5.3-6.5c0.9-1.1,2.1-1.6,3.3-1.3c1.2,0.2,2,1,1.9,2.3c0,0.8-0.3,1.7-0.8,2.3
		c-2.4,3-4.9,6.1-7.4,9.1c-1.2,1.4-2.9,1.7-4.2,0.8c-1.4-1-2.9-2-4.2-3.1c-1.2-1-1.2-2.7-0.1-4.1c1.1-1.3,2.9-1.7,4.2-0.9
		C59.2,63.3,59.7,63.7,60.4,64.3z"/>
</g>
</svg>
